<?xml version="1.0" encoding="UTF-8"?>
<svg id="Layer_1" xmlns="http://www.w3.org/2000/svg" viewBox="0 0 341.02 315.41">
  <defs>
    <style>
      .cls-1 {
        fill: #454349;
      }

      .cls-2 {
        fill: #f7efe6;
      }

      .cls-3 {
        fill: #ebd1b8;
      }

      .cls-4 {
        isolation: isolate;
        opacity: .5;
      }

      .cls-4, .cls-5 {
        fill: #65749b;
      }

      .cls-6 {
        fill: #c68b5c;
      }

      .cls-7 {
        fill: #cfd1d7;
      }

      .cls-8 {
        fill: #e5be84;
      }

      .cls-9 {
        fill: #fbb040;
      }

      .cls-10 {
        fill: #c58c66;
      }
    </style>
  </defs>
  <g>
    <path class="cls-1" d="M95.56,247.88h-9.27c-.98,0-1.77-.86-1.77-1.91V9.27c0-1.05-.79-1.91-1.76-1.91h-25.37c-.97,0-1.77.86-1.77,1.91v5.64c0,1.05.79,1.91,1.77,1.91h14.69c.97,0,1.76.86,1.76,1.91v240.9c0,1.05.79,1.91,1.76,1.91h19.96v-13.66Z"/>
    <path class="cls-5" d="M339.25,243.3H87.12v39.94h252.13c.97,0,1.77-.86,1.77-1.91v-36.12c0-1.06-.79-1.91-1.77-1.91Z"/>
    <path class="cls-4" d="M72.01,15.68c.15-2.79.43-5.55.91-8.29,0-.01,0-.02.01-.03h-15.54c-.97,0-1.77.86-1.77,1.91v5.64c0,1.05.79,1.91,1.77,1.91h14.37c.1-.46.19-.86.26-1.14Z"/>
    <path class="cls-9" d="M59.92,23.13H5.67c-3.13,0-5.67-2.75-5.67-6.13V6.13C0,2.75,2.54,0,5.67,0h54.25c3.13,0,5.67,2.75,5.67,6.13v10.87c0,3.39-2.54,6.13-5.67,6.13Z"/>
    <path class="cls-4" d="M133.44,247.29c-16.9,0-30.6,14.83-30.6,33.12,0,.96.06,1.91.13,2.84h60.94c.07-.94.13-1.88.13-2.84,0-18.29-13.7-33.12-30.6-33.12Z"/>
    <path class="cls-1" d="M172.72,282.29c0,18.29-13.7,33.12-30.6,33.12s-30.6-14.83-30.6-33.12,13.7-33.12,30.6-33.12,30.6,14.83,30.6,33.12Z"/>
    <path class="cls-7" d="M156.99,282.29c0,8.89-6.66,16.09-14.87,16.09s-14.87-7.2-14.87-16.09,6.66-16.09,14.87-16.09c8.21,0,14.87,7.2,14.87,16.09Z"/>
    <path class="cls-4" d="M291.79,247.29c-16.9,0-30.6,14.83-30.6,33.12,0,.96.06,1.91.13,2.84h60.94c.07-.94.13-1.88.13-2.84,0-18.29-13.7-33.12-30.6-33.12Z"/>
    <path class="cls-1" d="M288.82,251.57c15.66-6.89,33.51,1.27,39.87,18.21,6.36,16.94-1.17,36.26-16.83,43.15-15.66,6.89-33.51-1.27-39.87-18.21-6.36-16.94,1.17-36.26,16.83-43.15Z"/>
    <path class="cls-7" d="M315.2,282.29c0,8.89-6.66,16.09-14.87,16.09s-14.87-7.2-14.87-16.09,6.66-16.09,14.87-16.09c8.21,0,14.87,7.2,14.87,16.09Z"/>
  </g>
  <g>
    <polygon class="cls-10" points="239.8 57.54 210.76 57.54 189.46 57.54 160.42 57.54 160.42 133.54 149.94 133.54 109.79 133.54 109.79 242.39 149.94 242.39 179.38 242.39 219.53 242.39 219.53 142.23 239.8 142.23 239.8 57.54"/>
    <rect class="cls-6" x="203.63" y="157.7" width="56.74" height="84.68"/>
    <g>
      <rect class="cls-8" x="148.99" y="157.7" width="79.38" height="84.68"/>
      <rect class="cls-3" x="178.03" y="157.7" width="21.3" height="21.79"/>
      <rect class="cls-3" x="178.03" y="220.6" width="21.3" height="21.79"/>
      <g>
        <rect class="cls-2" x="152.8" y="225.02" width="20.59" height="13.46"/>
        <g>
          <rect class="cls-1" x="153.74" y="226.91" width="2.19" height="9.69"/>
          <rect class="cls-1" x="157.25" y="226.91" width=".77" height="9.69"/>
          <rect class="cls-1" x="161.16" y="226.91" width="1.79" height="9.69"/>
          <rect class="cls-1" x="158.9" y="226.91" width="1.09" height="9.69"/>
          <rect class="cls-1" x="164.29" y="226.91" width=".74" height="9.69"/>
          <rect class="cls-1" x="167.79" y="226.91" width="1.48" height="9.69"/>
          <rect class="cls-1" x="169.78" y="226.91" width=".73" height="9.69"/>
          <rect class="cls-1" x="166.11" y="226.91" width="1.02" height="9.69"/>
          <rect class="cls-1" x="171.3" y="226.91" width="1.09" height="9.69"/>
        </g>
      </g>
    </g>
    <g>
      <rect class="cls-8" x="236.91" y="157.7" width="79.38" height="84.68"/>
      <rect class="cls-3" x="265.95" y="157.7" width="21.3" height="21.79"/>
      <rect class="cls-3" x="265.95" y="220.6" width="21.3" height="21.79"/>
      <g>
        <rect class="cls-2" x="240.71" y="225.02" width="20.59" height="13.46"/>
        <g>
          <rect class="cls-1" x="241.66" y="226.91" width="2.19" height="9.69"/>
          <rect class="cls-1" x="245.17" y="226.91" width=".77" height="9.69"/>
          <rect class="cls-1" x="249.07" y="226.91" width="1.79" height="9.69"/>
          <rect class="cls-1" x="246.81" y="226.91" width="1.09" height="9.69"/>
          <rect class="cls-1" x="252.21" y="226.91" width=".74" height="9.69"/>
          <rect class="cls-1" x="255.71" y="226.91" width="1.48" height="9.69"/>
          <rect class="cls-1" x="257.69" y="226.91" width=".73" height="9.69"/>
          <rect class="cls-1" x="254.03" y="226.91" width="1.02" height="9.69"/>
          <rect class="cls-1" x="259.22" y="226.91" width="1.09" height="9.69"/>
        </g>
      </g>
    </g>
    <g>
      <rect class="cls-8" x="193.17" y="73.02" width="79.38" height="84.69"/>
      <rect class="cls-3" x="222.22" y="73.02" width="21.3" height="21.79"/>
      <rect class="cls-3" x="222.22" y="135.91" width="21.3" height="21.79"/>
      <g>
        <rect class="cls-2" x="196.98" y="140.34" width="20.59" height="13.46"/>
        <g>
          <rect class="cls-1" x="197.92" y="142.23" width="2.19" height="9.69"/>
          <rect class="cls-1" x="201.43" y="142.23" width=".77" height="9.69"/>
          <rect class="cls-1" x="205.34" y="142.23" width="1.79" height="9.69"/>
          <rect class="cls-1" x="203.08" y="142.23" width="1.09" height="9.69"/>
          <rect class="cls-1" x="208.47" y="142.23" width=".74" height="9.69"/>
          <rect class="cls-1" x="211.97" y="142.23" width="1.48" height="9.69"/>
          <rect class="cls-1" x="213.96" y="142.23" width=".73" height="9.69"/>
          <rect class="cls-1" x="210.29" y="142.23" width="1.02" height="9.69"/>
          <rect class="cls-1" x="215.48" y="142.23" width="1.09" height="9.69"/>
        </g>
      </g>
    </g>
  </g>
</svg>