<?xml version="1.0" encoding="utf-8"?>
<!-- Generator: Adobe Illustrator 24.1.2, SVG Export Plug-In . SVG Version: 6.00 Build 0)  -->
<svg version="1.1" id="Layer_1" xmlns="http://www.w3.org/2000/svg" xmlns:xlink="http://www.w3.org/1999/xlink" x="0px" y="0px"
	 viewBox="0 0 63 62.2" style="enable-background:new 0 0 63 62.2;" xml:space="preserve">
<style type="text/css">
	.st0{fill:none;stroke:#000000;stroke-width:2;stroke-miterlimit:10;}
	.st1{fill:none;stroke:#000000;stroke-width:2.2237;stroke-miterlimit:10;}
	.st2{fill:none;stroke:#000000;stroke-width:2.3646;stroke-miterlimit:10;}
	.st3{fill:#FFFFFF;}
	.st4{fill:none;stroke:#FFFFFF;stroke-width:2;stroke-miterlimit:10;}
	.st5{fill:none;stroke:#FFFFFF;stroke-width:2.2237;stroke-miterlimit:10;}
	.st6{fill:none;stroke:#FFFFFF;stroke-width:2.3646;stroke-miterlimit:10;}
</style>
<g>
	<g>
		<g>
			<path d="M12.9,17.2C9,17.7,6,21,6,25.1c0,4.4,3.5,7.9,7.9,7.9s7.9-3.5,7.9-7.9c0-0.4,0-0.8-0.1-1.2C18,21.9,14.9,19.3,12.9,17.2z
				"/>
			<g>
				<path class="st0" d="M10.2,14.2C5.7,15.7,2.4,20,2.4,25.1c0,6.4,5.1,11.5,11.5,11.5c6.3,0,11.3-5,11.5-11.2
					C16.5,22.5,10.2,14.2,10.2,14.2z"/>
			</g>
		</g>
		<g>
			<path d="M49.5,17.2c3.9,0.5,6.9,3.8,6.9,7.8c0,4.4-3.5,7.9-7.9,7.9s-7.9-3.5-7.9-7.9c0-0.4,0-0.8,0.1-1.2
				C44.4,21.9,47.4,19.3,49.5,17.2z"/>
			<g>
				<path class="st0" d="M52.2,14.2C56.7,15.7,60,20,60,25.1c0,6.4-5.1,11.5-11.5,11.5c-6.3,0-11.3-5-11.5-11.2
					C45.9,22.5,52.2,14.2,52.2,14.2z"/>
			</g>
		</g>
		<path class="st0" d="M10.2,14.2c0,0,9.1,12.1,21,12.1c10.1,0,16-7.2,30.1-21.7"/>
		<path class="st0" d="M31,18.7c-3.3,0-5.6,2.6-5.6,5.8c0,0.2,0.2,0.6,0.3,0.8c1.9,0.7,3.4,0.9,5.6,0.9c2.1,0,3.9-0.3,5.7-0.8
			c0.1-0.3,0.1-0.6,0.1-0.9C37,21.3,34.3,18.7,31,18.7z"/>
		<path class="st0" d="M19.9,17.2c0,0,10.4-10.5,22.6,0"/>
		<path class="st1" d="M15.9,12.9c0,0,14.4-14,30.6,0"/>
		<path class="st2" d="M11.8,9.1c0,0,18.8-17.9,38.4,0"/>
		<polygon points="28.2,31.6 34.4,31.6 31.2,36.6 		"/>
		<path d="M59.1,3.8L63,2.6l-0.8,4C62.2,6.7,61.3,4.1,59.1,3.8z"/>
	</g>
	<g>
		<g>
			<path d="M5.6,55.5c0.1,0.2,0.1,0.4,0.1,0.7v3.7H5v-3.7C5,55.4,4.5,55,3.5,55c-0.4,0-0.9,0-1.4,0l-0.3,0v-0.6
				c0.6,0,1.2-0.1,1.8-0.1c0.5,0,1,0.1,1.3,0.2S5.5,55.1,5.6,55.5z M2.5,59.9H1.8v-3.4h0.7V59.9z"/>
			<path d="M8,54.5c0.2,0,0.4-0.1,0.7-0.1s0.4,0,0.6,0.1c0.2,0.1,0.4,0.1,0.5,0.2c0.1,0.1,0.3,0.2,0.4,0.3s0.2,0.3,0.3,0.4
				c0.1,0.1,0.1,0.3,0.2,0.4c0.1,0.3,0.1,0.5,0.1,0.8v0.9c0,0.2,0,0.3,0,0.5c0,0.2-0.1,0.4-0.1,0.5c0,0.1-0.1,0.3-0.2,0.5
				c-0.1,0.2-0.2,0.3-0.4,0.4c-0.1,0.1-0.3,0.2-0.5,0.3c-0.2,0.1-0.5,0.1-0.7,0.1s-0.5,0-0.7,0c-0.2,0-0.3-0.1-0.4-0.1l-0.1,0v-0.6
				c0.4,0.1,0.8,0.2,1.2,0.2c0.2,0,0.3,0,0.5-0.1c0.1,0,0.3-0.1,0.3-0.2c0.1-0.1,0.2-0.2,0.2-0.3c0.1-0.1,0.1-0.2,0.2-0.3
				s0.1-0.2,0.1-0.3c0-0.2,0.1-0.4,0.1-0.5v-0.8c0-0.4,0-0.6-0.1-0.9c0-0.1-0.1-0.2-0.2-0.3c-0.1-0.1-0.1-0.2-0.2-0.3
				c-0.1-0.1-0.2-0.1-0.4-0.2S8.8,55,8.6,55c-0.2,0-0.4,0-0.6,0.1c-0.2,0-0.3,0.1-0.4,0.1l-0.1,0.1v-0.6c0,0,0.1,0,0.1-0.1
				C7.6,54.6,7.8,54.5,8,54.5z"/>
			<path d="M12.1,54.5c0.4,0,0.7,0,1,0c0.3,0,0.6,0,0.8,0.1c0.2,0,0.4,0.1,0.6,0.2s0.3,0.2,0.4,0.3c0.3,0.3,0.4,0.7,0.4,1.1v3.7
				h-0.7v-3.7c0-0.7-0.5-1.1-1.5-1.1c-0.3,0-0.6,0-1,0V54.5z"/>
			<path d="M20.9,54.5V55c-0.6,0.2-0.9,0.6-0.9,1.2v3.7h-0.7v-3.7c0-0.2,0-0.3,0.1-0.5c0-0.1,0.1-0.2,0.1-0.3
				c0.1-0.2,0.2-0.3,0.3-0.3l0.1,0v0H17v-0.5H20.9z"/>
			<path d="M26.4,55.5c0.1,0.2,0.1,0.4,0.1,0.7v3.7h-0.7v-3.7c0-0.7-0.5-1.1-1.5-1.1c-0.4,0-0.9,0-1.4,0l-0.3,0v-0.6
				c0.6,0,1.2-0.1,1.8-0.1c0.5,0,1,0.1,1.3,0.2S26.3,55.1,26.4,55.5z M23.3,59.9h-0.7v-3.4h0.7V59.9z"/>
			<path d="M32.5,55.5c0.1,0.2,0.1,0.4,0.1,0.7v3.7h-0.7v-3.7c0-0.7-0.5-1.1-1.5-1.1c-0.4,0-0.9,0-1.4,0l-0.3,0v-0.6
				c0.6,0,1.2-0.1,1.8-0.1c0.5,0,1,0.1,1.3,0.2S32.3,55.1,32.5,55.5z M29.3,59.9h-0.7v-3.4h0.7V59.9z"/>
			<path d="M39.9,59.9c-0.1,0-0.3,0-0.4-0.1v-0.6c0.2,0,0.3,0,0.3,0c0.4,0,0.6-0.2,0.6-0.7v-3.5l-0.6,0.1v-0.6
				c0.8-0.1,1.4-0.1,2-0.1c0.5,0,0.9,0.1,1.2,0.2c0.4,0.2,0.6,0.4,0.7,0.8c0.1,0.2,0.1,0.4,0.1,0.7v3.7h-0.7v-3.7
				c0-0.7-0.5-1.1-1.5-1.1c-0.1,0-0.3,0-0.7,0v3.5c0,0.4-0.1,0.8-0.3,1C40.7,59.8,40.3,59.9,39.9,59.9z"/>
			<path d="M46.1,58.1v-3.5h0.7v2.8l-0.5,0.7H46.1z"/>
			<path d="M48.8,58.1v-3.5h0.7v2.8l-0.5,0.7H48.8z"/>
			<path d="M51.1,54.5c0.4,0,0.7,0,1,0c0.3,0,0.6,0,0.8,0.1c0.2,0,0.4,0.1,0.6,0.2s0.3,0.2,0.4,0.3c0.3,0.3,0.4,0.7,0.4,1.1v3.7
				h-0.7v-3.7c0-0.7-0.5-1.1-1.5-1.1c-0.3,0-0.6,0-1,0V54.5z"/>
			<path d="M59.2,59.7v0.1h-0.7v-0.1c0-0.2,0-0.5,0.1-0.8c0.1-0.3,0.2-0.6,0.2-0.7c0.1-0.3,0.2-0.7,0.3-1.1l0.6-2h-3.3v-0.5h3.9V55
				l-0.6,2.1c-0.1,0.3-0.1,0.5-0.2,0.6c0,0.2-0.1,0.3-0.1,0.5c0,0.2-0.1,0.3-0.1,0.4c0,0.1-0.1,0.3-0.1,0.4
				C59.2,59.4,59.2,59.6,59.2,59.7z M57.2,61.9h-0.7v-5.2h0.7V61.9z"/>
		</g>
	</g>
	<g>
		<path d="M4,43.8h3.5v1.3l-0.9,3.1l0,0L6,50.8H4l0.6-2.7l0.8-2.7H1.9v-3H4V43.8z"/>
		<path d="M9.9,43h1.5c-0.2,1.1-0.4,2.1-0.5,3.1H9L9,46C9.3,44.6,9.6,43.6,9.9,43z M12.6,43h1.5c-0.2,1.1-0.4,2.1-0.5,3.1h-1.8
			L11.7,46C12.1,44.6,12.4,43.6,12.6,43z"/>
		<path d="M16.1,48.6v-4.7h2.1v3.2l-1.2,1.5H16.1z"/>
		<path d="M23.5,43.8c0.3,0,0.6-0.1,0.9-0.1s0.5,0,0.8,0.1s0.5,0.2,0.7,0.3s0.4,0.4,0.5,0.6c0.3,0.5,0.4,1.4,0.4,2.4
			c0,1.2-0.3,2.1-0.8,2.7s-1.3,1-2.3,1c-0.4,0-0.8-0.1-1.2-0.2c-0.4-0.2-0.7-0.4-0.9-0.7c-0.3-0.3-0.5-0.7-0.6-1.2
			c-0.2-0.5-0.2-1-0.2-1.5v-3.4h2.1v3.4c0,1.3,0.3,2,0.9,2c0.3,0,0.6-0.2,0.7-0.5c0.2-0.3,0.2-0.8,0.2-1.5s-0.1-1.2-0.2-1.5
			c-0.1-0.3-0.4-0.4-0.7-0.4l-0.3,0V43.8z"/>
		<path d="M34.7,43.9c0.7-0.1,1.4-0.1,1.9-0.1s1,0,1.3,0.1s0.6,0.1,0.8,0.3c0.2,0.1,0.4,0.2,0.5,0.4c0.1,0.1,0.2,0.3,0.3,0.5
			c0.1,0.2,0.1,0.4,0.2,0.6s0,0.5,0,0.8v4.4h-2.1v-4.4c0-0.7-0.3-1-1.1-1c-0.5,0-1.2,0-1.9,0.1V43.9z"/>
		<path d="M44.4,50.8h-2.1v-7h2.1V50.8z"/>
		<path d="M52.2,43.8v1.5c-0.4,0.1-0.6,0.3-0.7,0.5s-0.2,0.5-0.2,0.8v4.2h-2.1v-4.2c0-0.5,0.2-0.8,0.5-1.1h-3.3v-1.6H52.2z"/>
		<path d="M55.8,43.8c0.1,0.2,0.2,0.4,0.2,0.7h0.1c0.1-0.1,0.2-0.2,0.3-0.3s0.3-0.2,0.4-0.3c0.1-0.1,0.3-0.1,0.5-0.2
			c0.2-0.1,0.5-0.1,0.8-0.1s0.6,0.1,0.8,0.2c0.3,0.1,0.5,0.2,0.7,0.4s0.3,0.4,0.4,0.7c0.2,0.5,0.3,1.1,0.3,1.9v3.9H57v-1.6h1.2v-2.3
			c0-0.4,0-0.6-0.1-0.8s-0.1-0.3-0.2-0.4c-0.1-0.2-0.4-0.3-0.7-0.3c-0.1,0-0.2,0-0.4,0.1c-0.1,0-0.2,0.1-0.3,0.2
			c-0.2,0.2-0.3,0.3-0.3,0.4l0,0.1L56,50.8h-2.1l0.4-4.4c0-0.3,0-0.5,0-0.7c0-0.6-0.1-1.2-0.3-1.8H55.8z"/>
	</g>
</g>
</svg>
